<?xml version="1.0" encoding="UTF-8" standalone="no"?>
<!-- Created with Inkscape (http://www.inkscape.org/) -->

<svg
   xmlns:dc="http://purl.org/dc/elements/1.1/"
   xmlns:cc="http://creativecommons.org/ns#"
   xmlns:rdf="http://www.w3.org/1999/02/22-rdf-syntax-ns#"
   xmlns:svg="http://www.w3.org/2000/svg"
   xmlns="http://www.w3.org/2000/svg"
   xmlns:xlink="http://www.w3.org/1999/xlink"
   xmlns:sodipodi="http://sodipodi.sourceforge.net/DTD/sodipodi-0.dtd"
   xmlns:inkscape="http://www.inkscape.org/namespaces/inkscape"
   width="210mm"
   height="297mm"
   viewBox="0 0 210 297"
   version="1.1"
   id="svg8"
   inkscape:version="0.92.4 (5da689c313, 2019-01-14)"
   sodipodi:docname="uber logo.svg">
  <defs
     id="defs2">
    <linearGradient
       inkscape:collect="always"
       id="linearGradient838">
      <stop
         style="stop-color:#00e3ff;stop-opacity:1"
         offset="0"
         id="stop834" />
      <stop
         style="stop-color:#00adff;stop-opacity:1"
         offset="1"
         id="stop836" />
    </linearGradient>
    <linearGradient
       inkscape:collect="always"
       xlink:href="#linearGradient838"
       id="linearGradient840"
       x1="67.704071"
       y1="140.23436"
       x2="128.36485"
       y2="204.79271"
       gradientUnits="userSpaceOnUse"
       gradientTransform="matrix(0.83661799,0,0,0.83661799,32.934025,231.86037)" />
  </defs>
  <sodipodi:namedview
     id="base"
     pagecolor="#ffffff"
     bordercolor="#666666"
     borderopacity="1.0"
     inkscape:pageopacity="0.0"
     inkscape:pageshadow="2"
     inkscape:zoom="0.1767767"
     inkscape:cx="1087.9546"
     inkscape:cy="-361.80561"
     inkscape:document-units="mm"
     inkscape:current-layer="layer1"
     showgrid="false"
     inkscape:window-width="1366"
     inkscape:window-height="705"
     inkscape:window-x="-8"
     inkscape:window-y="-8"
     inkscape:window-maximized="1"
     inkscape:object-paths="true"
     inkscape:snap-global="true" />
  <metadata
     id="metadata5">
    <rdf:RDF>
      <cc:Work
         rdf:about="">
        <dc:format>image/svg+xml</dc:format>
        <dc:type
           rdf:resource="http://purl.org/dc/dcmitype/StillImage" />
        <dc:title />
      </cc:Work>
    </rdf:RDF>
  </metadata>
  <g
     inkscape:label="Layer 1"
     inkscape:groupmode="layer"
     id="layer1">
    <circle
       id="path4520"
       cx="545.9787"
       cy="272.509"
       r="67.73333"
       style="fill:#0000ff;stroke-width:0.15255255" />
    <circle
       style="fill:none;stroke-width:1.32291667;stroke:#000000;stroke-miterlimit:4;stroke-dasharray:none"
       r="67.73333"
       cy="165.23749"
       cx="-78.845825"
       id="circle4522" />
    <rect
       style="fill:none;stroke:#000000;stroke-width:1.23265362;stroke-miterlimit:4;stroke-dasharray:none"
       id="rect4526"
       width="114.39026"
       height="114.39026"
       x="-136.04095"
       y="108.04236"
       ry="10.223679" />
    <rect
       ry="12.784012"
       y="93.71888"
       x="-117.58977"
       height="143.03722"
       width="77.487892"
       id="rect4528"
       style="fill:none;stroke:#000000;stroke-width:1.13447118;stroke-miterlimit:4;stroke-dasharray:none" />
    <rect
       ry="10.223679"
       y="157.95648"
       x="338.38947"
       height="114.39026"
       width="114.39026"
       id="rect4530"
       style="fill:#ffff00;stroke:none;stroke-width:1.23265362;stroke-miterlimit:4;stroke-dasharray:none" />
    <path
       style="fill:#000000;stroke:none;stroke-width:0.77586097;stroke-miterlimit:4;stroke-dasharray:none"
       d="m 59.306664,184.90931 c -3.565,0 -6.43501,2.87002 -6.43501,6.43502 v 59.12998 c 0,3.565 2.87001,6.43502 6.43501,6.43502 h 59.129966 c 3.56501,0 6.43502,-2.87002 6.43502,-6.43502 v -59.12998 c 0,-3.565 -2.87001,-6.43502 -6.43502,-6.43502 z m 13.90143,14.5279 9.59852,4.47108 v 21.71524 c 0,1.73666 0.12963,3.04859 0.30347,3.81501 0.19342,0.78655 0.492,1.46089 0.91074,2.07291 l 0.004,0.004 0.004,0.006 c 0.41198,0.60861 0.90591,1.02309 1.66145,1.35602 0.77115,0.33344 1.81142,0.54742 3.17035,0.54742 1.38214,0 2.42891,-0.21279 3.17945,-0.53083 0.74402,-0.33002 1.24909,-0.74969 1.67868,-1.37977 l 0.002,-0.002 c 0.40513,-0.5921 0.70023,-1.2708 0.88309,-2.1051 l 0.002,-0.0134 0.004,-0.0107 c 0.19695,-0.85729 0.31641,-2.10047 0.32591,-3.65824 V 202.3846 h 0.002 l 9.598526,4.47074 v 18.54067 c 0,2.66716 -0.29344,5.06967 -0.93156,7.2176 -0.64107,2.19465 -1.75405,4.14285 -3.31378,5.68333 -1.442796,1.42404 -3.175566,2.49209 -5.099806,3.14595 -1.9015,0.64615 -4.01478,0.93871 -6.32962,0.93871 -2.36825,0 -4.52514,-0.30929 -6.45616,-0.99629 -1.90942,-0.67931 -3.60453,-1.7234 -4.97328,-3.11081 -2.6e-4,0 2.5e-4,-0.002 0,-0.002 -5e-4,-2.6e-4 -0.002,2.5e-4 -0.003,0 -1.52735,-1.54684 -2.64196,-3.44885 -3.3024,-5.57697 l -0.004,-0.01 -0.002,-0.01 c -0.63438,-2.10251 -0.91269,-4.51636 -0.91269,-7.28103 z"
       id="rect4532"
       inkscape:connector-curvature="0" />
    <path
       style="fill:#000000;stroke:none;stroke-width:0.77586204;stroke-miterlimit:4;stroke-dasharray:none"
       d="m 100.19219,46.510432 h 59.12993 c 3.565,0 6.43503,2.87002 6.43503,6.43502 v 59.129938 c 0,3.56501 -2.87003,6.43504 -6.43503,6.43504 h -59.12993 c -3.565011,0 -6.435031,-2.87003 -6.435031,-6.43504 V 52.945452 c 0,-3.565 2.87002,-6.43502 6.435031,-6.43502 z"
       id="rect4566"
       inkscape:connector-curvature="0" />
    <path
       sodipodi:nodetypes="cscccccccscccsccccccccccccccccscc"
       inkscape:connector-curvature="0"
       id="path4568"
       d="m 114.09336,61.038002 v 25.95729 c 0,2.76466 0.27836,5.17872 0.91274,7.28123 l 0.002,0.01 0.004,0.01 c 0.66045,2.12812 1.77517,4.03016 3.30253,5.577 2.5e-4,2.5e-4 0.001,-2.5e-4 0.002,0 2.5e-4,2.5e-4 -2.6e-4,0.002 0,0.002 1.36875,1.387418 3.06385,2.431498 4.97326,3.110808 1.93103,0.687 4.08798,0.99653 6.45623,0.99653 2.31485,0 4.42807,-0.29272 6.32957,-0.93887 1.92424,-0.65386 3.65712,-1.72175 5.09992,-3.145798 1.55973,-1.54048 2.67279,-3.4888 3.31387,-5.68346 0.63812,-2.14792 0.93147,-4.5505 0.93147,-7.21766 v -18.54059 l -9.59859,-4.47056 h -0.002 v 23.34 c -0.01,1.55777 -0.12882,2.80107 -0.32577,3.65836 l -0.004,0.0109 -0.002,0.0133 c -0.18286,0.83431 -0.47804,1.51282 -0.88317,2.10492 l -0.002,0.002 c -0.42959,0.63007 -0.9346,1.04994 -1.67863,1.37996 -0.75054,0.31803 -1.79717,0.53078 -3.17932,0.53078 -1.35892,0 -2.39929,-0.21411 -3.17044,-0.54754 -0.75555,-0.33294 -1.2494,-0.7472 -1.66137,-1.35581 l -0.004,-0.005 -0.004,-0.004 c -0.4188,-0.61301 -0.71741,-1.28734 -0.91083,-2.07389 -0.17384,-0.76643 -0.30359,-2.07842 -0.30359,-3.81509 v -21.7154 z"
       style="color:#000000;font-style:normal;font-variant:normal;font-weight:normal;font-stretch:normal;font-size:50.79999924px;line-height:1.25;font-family:sans-serif;font-variant-ligatures:normal;font-variant-position:normal;font-variant-caps:normal;font-variant-numeric:normal;font-variant-alternates:normal;font-feature-settings:normal;text-indent:0;text-align:start;text-decoration:none;text-decoration-line:none;text-decoration-style:solid;text-decoration-color:#000000;letter-spacing:0px;word-spacing:0px;text-transform:none;writing-mode:lr-tb;direction:ltr;text-orientation:mixed;dominant-baseline:auto;baseline-shift:baseline;text-anchor:start;white-space:normal;shape-padding:0;clip-rule:nonzero;display:inline;overflow:visible;visibility:visible;opacity:1;isolation:auto;mix-blend-mode:normal;color-interpolation:sRGB;color-interpolation-filters:linearRGB;solid-color:#000000;solid-opacity:1;vector-effect:none;fill:#ff243a;fill-opacity:1;fill-rule:nonzero;stroke:none;stroke-width:5.04669857;stroke-linecap:butt;stroke-linejoin:miter;stroke-miterlimit:4;stroke-dasharray:none;stroke-dashoffset:0;stroke-opacity:1;color-rendering:auto;image-rendering:auto;shape-rendering:auto;text-rendering:auto;enable-background:accumulate" />
    <g
       id="g966"
       transform="matrix(0.66666676,0,0,0.66666676,58.594778,250.56813)"
       inkscape:export-filename="C:\Users\proso\Desktop\uber clone logo\mipmap-mdpi\ic_launcher.png"
       inkscape:export-xdpi="96"
       inkscape:export-ydpi="96">
      <g
         id="g955">
        <path
           style="fill:#00b9ff;fill-opacity:1;stroke:none;stroke-width:0.77586204;stroke-miterlimit:4;stroke-dasharray:none"
           d="m 193.44473,377.74333 h 59.12993 c 3.565,0 6.43503,2.87002 6.43503,6.43502 v 59.12994 c 0,3.56501 -2.87003,6.43504 -6.43503,6.43504 h -59.12993 c -3.56501,0 -6.43503,-2.87003 -6.43503,-6.43504 v -59.12994 c 0,-3.565 2.87002,-6.43502 6.43503,-6.43502 z"
           id="rect4566-2"
           inkscape:connector-curvature="0" />
        <g
           id="g945"
           transform="translate(0,-3.175)">
          <rect
             transform="rotate(30)"
             style="fill:#6bff00;fill-opacity:1;stroke:#008000;stroke-width:0.96311635;stroke-miterlimit:4;stroke-dasharray:none"
             id="rect4608"
             width="11.410486"
             height="19.173359"
             x="398.14465"
             y="225.86836"
             rx="0"
             ry="0" />
          <rect
             transform="rotate(30)"
             ry="0"
             rx="0"
             y="230.85118"
             x="391.77029"
             height="19.173359"
             width="11.410486"
             id="rect4606"
             style="fill:#6bff00;fill-opacity:1;stroke:#008000;stroke-width:1.09592938;stroke-miterlimit:4;stroke-dasharray:none" />
        </g>
        <rect
           style="fill:#78441c;fill-opacity:1;stroke:none;stroke-width:3.8107729;stroke-miterlimit:4;stroke-dasharray:none"
           id="rect4598"
           width="47.269562"
           height="31.228558"
           x="199.37491"
           y="398.12906"
           ry="7.0990543" />
        <g
           id="g941"
           transform="translate(2.9741697,-4.1067834)">
          <rect
             rx="5.2130747"
             ry="5.6445546"
             y="412.20557"
             x="230.79849"
             height="11.289109"
             width="20.807388"
             id="rect4602"
             style="fill:#d45500;fill-opacity:1;stroke:none;stroke-width:4.29686594;stroke-miterlimit:4;stroke-dasharray:none" />
          <circle
             r="2.6562622"
             cy="417.85013"
             cx="237.88185"
             id="path4604"
             style="fill:#ffe680;fill-opacity:1;stroke:none;stroke-width:4.42710352;stroke-miterlimit:4;stroke-dasharray:none" />
        </g>
      </g>
    </g>
    <g
       id="g999"
       transform="matrix(0.66666667,0,0,0.66666667,94.417413,77.232579)"
       inkscape:export-filename="C:\Users\proso\Desktop\uber clone logo\mipmap-mdpi\ic_launcher_round.png"
       inkscape:export-xdpi="96"
       inkscape:export-ydpi="96">
      <g
         id="g986">
        <circle
           style="fill:url(#linearGradient840);fill-opacity:1;stroke:none;stroke-width:3.26356983;stroke-miterlimit:4;stroke-dasharray:none"
           id="path4596"
           cx="114.95142"
           cy="375.30289"
           r="36" />
        <g
           transform="matrix(0.83661799,0,0,0.83661799,32.708534,231.85124)"
           id="g921">
          <g
             id="g909">
            <rect
               transform="rotate(30)"
               style="fill:#6bff00;fill-opacity:1;stroke:#008000;stroke-width:1.15120208;stroke-miterlimit:4;stroke-dasharray:none"
               id="rect905"
               width="13.638825"
               height="22.917698"
               x="166.70506"
               y="69.752853"
               rx="0"
               ry="0" />
            <rect
               transform="rotate(30)"
               ry="0"
               rx="0"
               y="75.708763"
               x="159.08585"
               height="22.917698"
               width="13.638825"
               id="rect907"
               style="fill:#6bff00;fill-opacity:1;stroke:#008000;stroke-width:1.30995202;stroke-miterlimit:4;stroke-dasharray:none" />
          </g>
          <g
             id="g919">
            <rect
               ry="8.4854193"
               y="152.79163"
               x="69.784073"
               height="37.327141"
               width="56.500771"
               id="rect911"
               style="fill:#78441c;fill-opacity:1;stroke:none;stroke-width:4.5549736;stroke-miterlimit:4;stroke-dasharray:none" />
            <g
               id="g917">
              <rect
                 style="fill:#d45500;fill-opacity:1;stroke:none;stroke-width:5.13599491;stroke-miterlimit:4;stroke-dasharray:none"
                 id="rect913"
                 width="24.870836"
                 height="13.493744"
                 x="108.21458"
                 y="164.70833"
                 ry="6.7468719"
                 rx="6.2311292" />
              <circle
                 style="fill:#ffe680;fill-opacity:1;stroke:none;stroke-width:5.29166651;stroke-miterlimit:4;stroke-dasharray:none"
                 id="circle915"
                 cx="116.68124"
                 cy="171.4552"
                 r="3.175" />
            </g>
          </g>
        </g>
      </g>
    </g>
  </g>
</svg>
